# xmcd
# 
# Track frame offsets:
#     150
#     15470
#     40802
#     58537
#     75552
#     101970
#     131095
#     154575
#     183915
#     203385
#     221365
#     239970
# 
# Disc length: 3455
# 
# Revision: 6
# Processed by: cddbd v1.5.2PL0 Copyright (c) Steve Scherf et al.
# Submitted via: BonkEnc v1.0.15
# 
DISCID=9b0d7d0c
DTITLE=Various Artist - Disco 95
DYEAR=1995
DGENRE=Disco
TTITLE0=2 Raff - Don't Stop The Music (Radio Cut)
TTITLE1=Red Velvet - Lady Don't Cry
TTITLE2=Playahitty - The Summer Is Magic
TTITLE3=Jamie Dee - Don't Be Shy
TTITLE4=Double You - Run To Me
TTITLE5=M People - One Night In Heaven
TTITLE6=Joy Salinas - People Talk
TTITLE7=Le Click - Tonight Is The Night
TTITLE8=Due - Under The Same Sun
TTITLE9=MC Sar and The Real McCoy - Run Away
TTITLE10=Gottsha - No One To Answer
TTITLE11=Stevie B - Running Back
EXTD=Som Livre 2002-2
EXTT0=
EXTT1=
EXTT2=
EXTT3=
EXTT4=
EXTT5=
EXTT6=
EXTT7=
EXTT8=
EXTT9=
EXTT10=
EXTT11=
PLAYORDER=
